<mxfile host="app.diagrams.net" modified="2020-09-01T03:49:53.242Z" agent="5.0 (Macintosh; Intel Mac OS X 10_15_6) AppleWebKit/605.1.15 (KHTML, like Gecko) Version/13.1.2 Safari/605.1.15" etag="C8_iRpciBNakDmdUyueM" version="13.6.6" type="github">
  <diagram id="9X-msZLou-b4MV_WPyih" name="Page-1">
    <mxGraphModel dx="1186" dy="884" grid="1" gridSize="10" guides="1" tooltips="1" connect="1" arrows="1" fold="1" page="1" pageScale="1" pageWidth="827" pageHeight="1169" math="0" shadow="0">
      <root>
        <mxCell id="0" />
        <mxCell id="1" parent="0" />
        <mxCell id="TOR_Pet7r_ynrj9Hli70-2" value="" style="shape=umlActor;verticalLabelPosition=bottom;verticalAlign=top;html=1;outlineConnect=0;" vertex="1" parent="1">
          <mxGeometry x="210" y="110" width="30" height="60" as="geometry" />
        </mxCell>
        <mxCell id="TOR_Pet7r_ynrj9Hli70-3" value="&lt;font style=&quot;font-size: 18px&quot;&gt;app-server&lt;/font&gt;" style="rounded=0;whiteSpace=wrap;html=1;" vertex="1" parent="1">
          <mxGeometry x="430" y="110" width="120" height="60" as="geometry" />
        </mxCell>
        <mxCell id="TOR_Pet7r_ynrj9Hli70-20" style="edgeStyle=orthogonalEdgeStyle;rounded=0;orthogonalLoop=1;jettySize=auto;html=1;entryX=0;entryY=0.25;entryDx=0;entryDy=0;" edge="1" parent="1" target="TOR_Pet7r_ynrj9Hli70-11">
          <mxGeometry relative="1" as="geometry">
            <mxPoint x="470" y="240" as="targetPoint" />
            <mxPoint x="238" y="240" as="sourcePoint" />
            <Array as="points" />
          </mxGeometry>
        </mxCell>
        <mxCell id="TOR_Pet7r_ynrj9Hli70-7" value="" style="rounded=0;whiteSpace=wrap;html=1;" vertex="1" parent="1">
          <mxGeometry x="210" y="220" width="30" height="130" as="geometry" />
        </mxCell>
        <mxCell id="TOR_Pet7r_ynrj9Hli70-8" value="" style="endArrow=none;dashed=1;html=1;exitX=0.5;exitY=0;exitDx=0;exitDy=0;" edge="1" parent="1" source="TOR_Pet7r_ynrj9Hli70-7">
          <mxGeometry width="50" height="50" relative="1" as="geometry">
            <mxPoint x="220" y="270" as="sourcePoint" />
            <mxPoint x="225" y="170" as="targetPoint" />
          </mxGeometry>
        </mxCell>
        <mxCell id="TOR_Pet7r_ynrj9Hli70-21" style="edgeStyle=orthogonalEdgeStyle;rounded=0;orthogonalLoop=1;jettySize=auto;html=1;exitX=0;exitY=0.75;exitDx=0;exitDy=0;dashed=1;" edge="1" parent="1" source="TOR_Pet7r_ynrj9Hli70-11">
          <mxGeometry relative="1" as="geometry">
            <mxPoint x="238" y="260" as="targetPoint" />
          </mxGeometry>
        </mxCell>
        <mxCell id="TOR_Pet7r_ynrj9Hli70-11" value="" style="rounded=0;whiteSpace=wrap;html=1;" vertex="1" parent="1">
          <mxGeometry x="475" y="230" width="30" height="40" as="geometry" />
        </mxCell>
        <mxCell id="TOR_Pet7r_ynrj9Hli70-17" value="" style="endArrow=none;dashed=1;html=1;entryX=0.5;entryY=1;entryDx=0;entryDy=0;exitX=0.5;exitY=0;exitDx=0;exitDy=0;" edge="1" parent="1" source="TOR_Pet7r_ynrj9Hli70-11" target="TOR_Pet7r_ynrj9Hli70-3">
          <mxGeometry width="50" height="50" relative="1" as="geometry">
            <mxPoint x="490" y="250" as="sourcePoint" />
            <mxPoint x="494" y="190" as="targetPoint" />
          </mxGeometry>
        </mxCell>
        <mxCell id="TOR_Pet7r_ynrj9Hli70-26" value="请求图形验证" style="text;html=1;strokeColor=none;fillColor=none;align=center;verticalAlign=middle;whiteSpace=wrap;rounded=0;" vertex="1" parent="1">
          <mxGeometry x="310" y="210" width="90" height="20" as="geometry" />
        </mxCell>
        <mxCell id="TOR_Pet7r_ynrj9Hli70-28" value="验证图片" style="text;html=1;strokeColor=none;fillColor=none;align=center;verticalAlign=middle;whiteSpace=wrap;rounded=0;" vertex="1" parent="1">
          <mxGeometry x="310" y="260" width="90" height="20" as="geometry" />
        </mxCell>
        <mxCell id="TOR_Pet7r_ynrj9Hli70-31" style="edgeStyle=orthogonalEdgeStyle;rounded=0;orthogonalLoop=1;jettySize=auto;html=1;entryX=0;entryY=0.25;entryDx=0;entryDy=0;" edge="1" target="TOR_Pet7r_ynrj9Hli70-35" parent="1">
          <mxGeometry relative="1" as="geometry">
            <mxPoint x="470" y="390" as="targetPoint" />
            <mxPoint x="237.99999999999977" y="390" as="sourcePoint" />
            <Array as="points" />
          </mxGeometry>
        </mxCell>
        <mxCell id="TOR_Pet7r_ynrj9Hli70-32" value="" style="rounded=0;whiteSpace=wrap;html=1;" vertex="1" parent="1">
          <mxGeometry x="211.25" y="370" width="27.5" height="60" as="geometry" />
        </mxCell>
        <mxCell id="TOR_Pet7r_ynrj9Hli70-33" value="" style="endArrow=none;dashed=1;html=1;exitX=0.5;exitY=0;exitDx=0;exitDy=0;entryX=0.5;entryY=1;entryDx=0;entryDy=0;" edge="1" source="TOR_Pet7r_ynrj9Hli70-32" parent="1" target="TOR_Pet7r_ynrj9Hli70-7">
          <mxGeometry width="50" height="50" relative="1" as="geometry">
            <mxPoint x="220" y="460" as="sourcePoint" />
            <mxPoint x="210" y="380" as="targetPoint" />
          </mxGeometry>
        </mxCell>
        <mxCell id="TOR_Pet7r_ynrj9Hli70-34" style="edgeStyle=orthogonalEdgeStyle;rounded=0;orthogonalLoop=1;jettySize=auto;html=1;exitX=0;exitY=0.75;exitDx=0;exitDy=0;dashed=1;" edge="1" source="TOR_Pet7r_ynrj9Hli70-35" parent="1">
          <mxGeometry relative="1" as="geometry">
            <mxPoint x="237.99999999999977" y="410" as="targetPoint" />
          </mxGeometry>
        </mxCell>
        <mxCell id="TOR_Pet7r_ynrj9Hli70-35" value="" style="rounded=0;whiteSpace=wrap;html=1;" vertex="1" parent="1">
          <mxGeometry x="475" y="380" width="30" height="40" as="geometry" />
        </mxCell>
        <mxCell id="TOR_Pet7r_ynrj9Hli70-36" value="" style="endArrow=none;dashed=1;html=1;entryX=0.5;entryY=1;entryDx=0;entryDy=0;exitX=0.5;exitY=0;exitDx=0;exitDy=0;" edge="1" source="TOR_Pet7r_ynrj9Hli70-35" parent="1" target="TOR_Pet7r_ynrj9Hli70-11">
          <mxGeometry width="50" height="50" relative="1" as="geometry">
            <mxPoint x="491" y="480" as="sourcePoint" />
            <mxPoint x="491" y="400" as="targetPoint" />
          </mxGeometry>
        </mxCell>
        <mxCell id="TOR_Pet7r_ynrj9Hli70-37" value="请求短信验证码" style="text;html=1;strokeColor=none;fillColor=none;align=center;verticalAlign=middle;whiteSpace=wrap;rounded=0;" vertex="1" parent="1">
          <mxGeometry x="310" y="360" width="90" height="20" as="geometry" />
        </mxCell>
        <mxCell id="TOR_Pet7r_ynrj9Hli70-38" value="发送短信" style="text;html=1;strokeColor=none;fillColor=none;align=center;verticalAlign=middle;whiteSpace=wrap;rounded=0;" vertex="1" parent="1">
          <mxGeometry x="310" y="410" width="90" height="20" as="geometry" />
        </mxCell>
        <mxCell id="TOR_Pet7r_ynrj9Hli70-41" value="" style="endArrow=classic;html=1;" edge="1" parent="1">
          <mxGeometry width="50" height="50" relative="1" as="geometry">
            <mxPoint x="242" y="290" as="sourcePoint" />
            <mxPoint x="242" y="333" as="targetPoint" />
            <Array as="points">
              <mxPoint x="320" y="290" />
              <mxPoint x="320" y="333" />
            </Array>
          </mxGeometry>
        </mxCell>
        <mxCell id="TOR_Pet7r_ynrj9Hli70-45" value="校验图形码" style="text;html=1;strokeColor=none;fillColor=none;align=center;verticalAlign=middle;whiteSpace=wrap;rounded=0;" vertex="1" parent="1">
          <mxGeometry x="324" y="300" width="90" height="20" as="geometry" />
        </mxCell>
        <mxCell id="TOR_Pet7r_ynrj9Hli70-48" style="edgeStyle=orthogonalEdgeStyle;rounded=0;orthogonalLoop=1;jettySize=auto;html=1;entryX=0;entryY=0.25;entryDx=0;entryDy=0;" edge="1" target="TOR_Pet7r_ynrj9Hli70-52" parent="1">
          <mxGeometry relative="1" as="geometry">
            <mxPoint x="470.13" y="480" as="targetPoint" />
            <mxPoint x="238.12999999999977" y="480" as="sourcePoint" />
            <Array as="points" />
          </mxGeometry>
        </mxCell>
        <mxCell id="TOR_Pet7r_ynrj9Hli70-49" value="" style="rounded=0;whiteSpace=wrap;html=1;" vertex="1" parent="1">
          <mxGeometry x="211.38" y="460" width="27.5" height="130" as="geometry" />
        </mxCell>
        <mxCell id="TOR_Pet7r_ynrj9Hli70-50" value="" style="endArrow=none;dashed=1;html=1;exitX=0.5;exitY=0;exitDx=0;exitDy=0;entryX=0.5;entryY=1;entryDx=0;entryDy=0;" edge="1" source="TOR_Pet7r_ynrj9Hli70-49" parent="1" target="TOR_Pet7r_ynrj9Hli70-32">
          <mxGeometry width="50" height="50" relative="1" as="geometry">
            <mxPoint x="218.75" y="580" as="sourcePoint" />
            <mxPoint x="223.75" y="480" as="targetPoint" />
          </mxGeometry>
        </mxCell>
        <mxCell id="TOR_Pet7r_ynrj9Hli70-51" style="edgeStyle=orthogonalEdgeStyle;rounded=0;orthogonalLoop=1;jettySize=auto;html=1;exitX=0;exitY=0.75;exitDx=0;exitDy=0;dashed=1;" edge="1" source="TOR_Pet7r_ynrj9Hli70-52" parent="1">
          <mxGeometry relative="1" as="geometry">
            <mxPoint x="238.12999999999977" y="500" as="targetPoint" />
          </mxGeometry>
        </mxCell>
        <mxCell id="TOR_Pet7r_ynrj9Hli70-52" value="" style="rounded=0;whiteSpace=wrap;html=1;" vertex="1" parent="1">
          <mxGeometry x="475.13" y="470" width="30" height="40" as="geometry" />
        </mxCell>
        <mxCell id="TOR_Pet7r_ynrj9Hli70-53" value="" style="endArrow=none;dashed=1;html=1;exitX=0.5;exitY=0;exitDx=0;exitDy=0;" edge="1" source="TOR_Pet7r_ynrj9Hli70-52" parent="1" target="TOR_Pet7r_ynrj9Hli70-35">
          <mxGeometry width="50" height="50" relative="1" as="geometry">
            <mxPoint x="489.75" y="600" as="sourcePoint" />
            <mxPoint x="489" y="490" as="targetPoint" />
          </mxGeometry>
        </mxCell>
        <mxCell id="TOR_Pet7r_ynrj9Hli70-54" value="短信验证码" style="text;html=1;strokeColor=none;fillColor=none;align=center;verticalAlign=middle;whiteSpace=wrap;rounded=0;" vertex="1" parent="1">
          <mxGeometry x="310.13" y="450" width="90" height="20" as="geometry" />
        </mxCell>
        <mxCell id="TOR_Pet7r_ynrj9Hli70-55" value="校验结果" style="text;html=1;strokeColor=none;fillColor=none;align=center;verticalAlign=middle;whiteSpace=wrap;rounded=0;" vertex="1" parent="1">
          <mxGeometry x="310.13" y="500" width="90" height="20" as="geometry" />
        </mxCell>
        <mxCell id="TOR_Pet7r_ynrj9Hli70-59" value="" style="endArrow=classic;html=1;" edge="1" parent="1">
          <mxGeometry width="50" height="50" relative="1" as="geometry">
            <mxPoint x="240.13" y="530" as="sourcePoint" />
            <mxPoint x="242.13" y="573" as="targetPoint" />
            <Array as="points">
              <mxPoint x="320.13" y="530" />
              <mxPoint x="320.13" y="573" />
            </Array>
          </mxGeometry>
        </mxCell>
        <mxCell id="TOR_Pet7r_ynrj9Hli70-60" value="跳转设置密码" style="text;html=1;strokeColor=none;fillColor=none;align=center;verticalAlign=middle;whiteSpace=wrap;rounded=0;" vertex="1" parent="1">
          <mxGeometry x="324.13" y="540" width="90" height="20" as="geometry" />
        </mxCell>
        <mxCell id="TOR_Pet7r_ynrj9Hli70-62" style="edgeStyle=orthogonalEdgeStyle;rounded=0;orthogonalLoop=1;jettySize=auto;html=1;entryX=0;entryY=0.25;entryDx=0;entryDy=0;" edge="1" target="TOR_Pet7r_ynrj9Hli70-66" parent="1">
          <mxGeometry relative="1" as="geometry">
            <mxPoint x="473.38" y="740" as="targetPoint" />
            <mxPoint x="241.37999999999977" y="740" as="sourcePoint" />
            <Array as="points" />
          </mxGeometry>
        </mxCell>
        <mxCell id="TOR_Pet7r_ynrj9Hli70-63" value="" style="rounded=0;whiteSpace=wrap;html=1;" vertex="1" parent="1">
          <mxGeometry x="210" y="620" width="30.88" height="170" as="geometry" />
        </mxCell>
        <mxCell id="TOR_Pet7r_ynrj9Hli70-64" value="" style="endArrow=none;dashed=1;html=1;exitX=0.5;exitY=0;exitDx=0;exitDy=0;entryX=0.5;entryY=1;entryDx=0;entryDy=0;" edge="1" source="TOR_Pet7r_ynrj9Hli70-63" parent="1" target="TOR_Pet7r_ynrj9Hli70-49">
          <mxGeometry width="50" height="50" relative="1" as="geometry">
            <mxPoint x="220.75" y="810" as="sourcePoint" />
            <mxPoint x="225.75" y="710" as="targetPoint" />
          </mxGeometry>
        </mxCell>
        <mxCell id="TOR_Pet7r_ynrj9Hli70-65" style="edgeStyle=orthogonalEdgeStyle;rounded=0;orthogonalLoop=1;jettySize=auto;html=1;exitX=0;exitY=0.75;exitDx=0;exitDy=0;dashed=1;" edge="1" source="TOR_Pet7r_ynrj9Hli70-66" parent="1">
          <mxGeometry relative="1" as="geometry">
            <mxPoint x="241.37999999999977" y="760" as="targetPoint" />
          </mxGeometry>
        </mxCell>
        <mxCell id="TOR_Pet7r_ynrj9Hli70-66" value="" style="rounded=0;whiteSpace=wrap;html=1;" vertex="1" parent="1">
          <mxGeometry x="475.13" y="730" width="30" height="40" as="geometry" />
        </mxCell>
        <mxCell id="TOR_Pet7r_ynrj9Hli70-67" value="" style="endArrow=none;dashed=1;html=1;entryX=0.5;entryY=1;entryDx=0;entryDy=0;exitX=0.5;exitY=0;exitDx=0;exitDy=0;" edge="1" source="TOR_Pet7r_ynrj9Hli70-66" parent="1" target="TOR_Pet7r_ynrj9Hli70-52">
          <mxGeometry width="50" height="50" relative="1" as="geometry">
            <mxPoint x="491.75" y="830" as="sourcePoint" />
            <mxPoint x="490.7499999999998" y="620" as="targetPoint" />
          </mxGeometry>
        </mxCell>
        <mxCell id="TOR_Pet7r_ynrj9Hli70-68" value="账号、密码" style="text;html=1;strokeColor=none;fillColor=none;align=center;verticalAlign=middle;whiteSpace=wrap;rounded=0;" vertex="1" parent="1">
          <mxGeometry x="313.38" y="710" width="90" height="20" as="geometry" />
        </mxCell>
        <mxCell id="TOR_Pet7r_ynrj9Hli70-69" value="验证图片" style="text;html=1;strokeColor=none;fillColor=none;align=center;verticalAlign=middle;whiteSpace=wrap;rounded=0;" vertex="1" parent="1">
          <mxGeometry x="313.38" y="760" width="90" height="20" as="geometry" />
        </mxCell>
        <mxCell id="TOR_Pet7r_ynrj9Hli70-70" value="" style="endArrow=classic;html=1;" edge="1" parent="1">
          <mxGeometry width="50" height="50" relative="1" as="geometry">
            <mxPoint x="242.63" y="650" as="sourcePoint" />
            <mxPoint x="244.63" y="693" as="targetPoint" />
            <Array as="points">
              <mxPoint x="322.63" y="650" />
              <mxPoint x="322.63" y="693" />
            </Array>
          </mxGeometry>
        </mxCell>
        <mxCell id="TOR_Pet7r_ynrj9Hli70-71" value="校验两次输入密码" style="text;html=1;strokeColor=none;fillColor=none;align=center;verticalAlign=middle;whiteSpace=wrap;rounded=0;" vertex="1" parent="1">
          <mxGeometry x="330.13" y="660" width="101.25" height="20" as="geometry" />
        </mxCell>
        <mxCell id="TOR_Pet7r_ynrj9Hli70-74" value="" style="rounded=0;whiteSpace=wrap;html=1;" vertex="1" parent="1">
          <mxGeometry x="211.25" y="840" width="27.5" height="60" as="geometry" />
        </mxCell>
        <mxCell id="TOR_Pet7r_ynrj9Hli70-75" value="" style="endArrow=none;dashed=1;html=1;exitX=0.5;exitY=0;exitDx=0;exitDy=0;entryX=0.5;entryY=1;entryDx=0;entryDy=0;" edge="1" parent="1" source="TOR_Pet7r_ynrj9Hli70-74" target="TOR_Pet7r_ynrj9Hli70-63">
          <mxGeometry width="50" height="50" relative="1" as="geometry">
            <mxPoint x="220" y="980" as="sourcePoint" />
            <mxPoint x="225" y="870" as="targetPoint" />
            <Array as="points" />
          </mxGeometry>
        </mxCell>
        <mxCell id="TOR_Pet7r_ynrj9Hli70-82" value="" style="endArrow=classic;html=1;" edge="1" parent="1">
          <mxGeometry width="50" height="50" relative="1" as="geometry">
            <mxPoint x="224" y="819" as="sourcePoint" />
            <mxPoint x="246.1300000000001" y="861.5" as="targetPoint" />
            <Array as="points">
              <mxPoint x="324.13" y="818.5" />
              <mxPoint x="324.13" y="861.5" />
            </Array>
          </mxGeometry>
        </mxCell>
        <mxCell id="TOR_Pet7r_ynrj9Hli70-83" value="数据解析" style="text;html=1;align=center;verticalAlign=middle;resizable=0;points=[];autosize=1;" vertex="1" parent="1">
          <mxGeometry x="240" y="830" width="60" height="20" as="geometry" />
        </mxCell>
      </root>
    </mxGraphModel>
  </diagram>
</mxfile>
